<?xml version="1.0" encoding="utf-8" standalone="no"?>
<!DOCTYPE svg PUBLIC "-//W3C//DTD SVG 1.1//EN"
  "http://www.w3.org/Graphics/SVG/1.1/DTD/svg11.dtd">
<svg xmlns:xlink="http://www.w3.org/1999/xlink" width="340.15748pt" height="170.07874pt" viewBox="0 0 340.15748 170.07874" xmlns="http://www.w3.org/2000/svg" version="1.1">
 <metadata>
  <rdf:RDF xmlns:dc="http://purl.org/dc/elements/1.1/" xmlns:cc="http://creativecommons.org/ns#" xmlns:rdf="http://www.w3.org/1999/02/22-rdf-syntax-ns#">
   <cc:Work>
    <dc:type rdf:resource="http://purl.org/dc/dcmitype/StillImage"/>
    <dc:date>2022-09-29T11:20:14.774729</dc:date>
    <dc:format>image/svg+xml</dc:format>
    <dc:creator>
     <cc:Agent>
      <dc:title>Matplotlib v3.5.2, https://matplotlib.org/</dc:title>
     </cc:Agent>
    </dc:creator>
   </cc:Work>
  </rdf:RDF>
 </metadata>
 <defs>
  <style type="text/css">*{stroke-linejoin: round; stroke-linecap: butt}</style>
 </defs>
 <g id="figure_1">
  <g id="patch_1">
   <path d="M 0 170.07874 
L 340.15748 170.07874 
L 340.15748 0 
L 0 0 
z
" style="fill: #ffffff"/>
  </g>
  <g id="axes_1">
   <g id="patch_2">
    <path d="M 42.519685 151.370079 
L 306.141732 151.370079 
L 306.141732 20.409449 
L 42.519685 20.409449 
z
" style="fill: #ffffff"/>
   </g>
   <g id="patch_3">
    <path d="M 54.502505 151.370079 
L 60.647541 151.370079 
L 60.647541 85.403028 
L 54.502505 85.403028 
z
" clip-path="url(#p27c302c89f)" style="fill: #ff0000; stroke: #000000; stroke-linejoin: miter"/>
   </g>
   <g id="patch_4">
    <path d="M 60.647541 151.370079 
L 66.792578 151.370079 
L 66.792578 104.128772 
L 60.647541 104.128772 
z
" clip-path="url(#p27c302c89f)" style="fill: #ff0000; stroke: #000000; stroke-linejoin: miter"/>
   </g>
   <g id="patch_5">
    <path d="M 66.792578 151.370079 
L 72.937614 151.370079 
L 72.937614 107.828351 
L 66.792578 107.828351 
z
" clip-path="url(#p27c302c89f)" style="fill: #ff0000; stroke: #000000; stroke-linejoin: miter"/>
   </g>
   <g id="patch_6">
    <path d="M 79.08265 151.370079 
L 85.227686 151.370079 
L 85.227686 83.827299 
L 79.08265 83.827299 
z
" clip-path="url(#p27c302c89f)" style="fill: #bcbd22; stroke: #000000; stroke-linejoin: miter"/>
   </g>
   <g id="patch_7">
    <path d="M 85.227686 151.370079 
L 91.372722 151.370079 
L 91.372722 96.425583 
L 85.227686 96.425583 
z
" clip-path="url(#p27c302c89f)" style="fill: #bcbd22; stroke: #000000; stroke-linejoin: miter"/>
   </g>
   <g id="patch_8">
    <path d="M 91.372722 151.370079 
L 97.517758 151.370079 
L 97.517758 109.260929 
L 91.372722 109.260929 
z
" clip-path="url(#p27c302c89f)" style="fill: #bcbd22; stroke: #000000; stroke-linejoin: miter"/>
   </g>
   <g id="patch_9">
    <path d="M 103.662794 151.370079 
L 109.80783 151.370079 
L 109.80783 57.514033 
L 103.662794 57.514033 
z
" clip-path="url(#p27c302c89f)" style="fill: #808080; stroke: #000000; stroke-linejoin: miter"/>
   </g>
   <g id="patch_10">
    <path d="M 109.80783 151.370079 
L 115.952866 151.370079 
L 115.952866 74.337007 
L 109.80783 74.337007 
z
" clip-path="url(#p27c302c89f)" style="fill: #808080; stroke: #000000; stroke-linejoin: miter"/>
   </g>
   <g id="patch_11">
    <path d="M 115.952866 151.370079 
L 122.097902 151.370079 
L 122.097902 87.695513 
L 115.952866 87.695513 
z
" clip-path="url(#p27c302c89f)" style="fill: #808080; stroke: #000000; stroke-linejoin: miter"/>
   </g>
   <g id="patch_12">
    <path d="M 140.53301 151.370079 
L 146.678046 151.370079 
L 146.678046 89.029093 
L 140.53301 89.029093 
z
" clip-path="url(#p27c302c89f)" style="fill: #ff0000; stroke: #000000; stroke-linejoin: miter"/>
   </g>
   <g id="patch_13">
    <path d="M 146.678046 151.370079 
L 152.823082 151.370079 
L 152.823082 94.270639 
L 146.678046 94.270639 
z
" clip-path="url(#p27c302c89f)" style="fill: #ff0000; stroke: #000000; stroke-linejoin: miter"/>
   </g>
   <g id="patch_14">
    <path d="M 152.823082 151.370079 
L 158.968118 151.370079 
L 158.968118 95.335279 
L 152.823082 95.335279 
z
" clip-path="url(#p27c302c89f)" style="fill: #ff0000; stroke: #000000; stroke-linejoin: miter"/>
   </g>
   <g id="patch_15">
    <path d="M 165.113155 151.370079 
L 171.258191 151.370079 
L 171.258191 85.346077 
L 165.113155 85.346077 
z
" clip-path="url(#p27c302c89f)" style="fill: #bcbd22; stroke: #000000; stroke-linejoin: miter"/>
   </g>
   <g id="patch_16">
    <path d="M 171.258191 151.370079 
L 177.403227 151.370079 
L 177.403227 94.859471 
L 171.258191 94.859471 
z
" clip-path="url(#p27c302c89f)" style="fill: #bcbd22; stroke: #000000; stroke-linejoin: miter"/>
   </g>
   <g id="patch_17">
    <path d="M 177.403227 151.370079 
L 183.548263 151.370079 
L 183.548263 96.230036 
L 177.403227 96.230036 
z
" clip-path="url(#p27c302c89f)" style="fill: #bcbd22; stroke: #000000; stroke-linejoin: miter"/>
   </g>
   <g id="patch_18">
    <path d="M 189.693299 151.370079 
L 195.838335 151.370079 
L 195.838335 65.212032 
L 189.693299 65.212032 
z
" clip-path="url(#p27c302c89f)" style="fill: #808080; stroke: #000000; stroke-linejoin: miter"/>
   </g>
   <g id="patch_19">
    <path d="M 195.838335 151.370079 
L 201.983371 151.370079 
L 201.983371 81.020212 
L 195.838335 81.020212 
z
" clip-path="url(#p27c302c89f)" style="fill: #808080; stroke: #000000; stroke-linejoin: miter"/>
   </g>
   <g id="patch_20">
    <path d="M 201.983371 151.370079 
L 208.128407 151.370079 
L 208.128407 81.894531 
L 201.983371 81.894531 
z
" clip-path="url(#p27c302c89f)" style="fill: #808080; stroke: #000000; stroke-linejoin: miter"/>
   </g>
   <g id="patch_21">
    <path d="M 226.563515 151.370079 
L 232.708551 151.370079 
L 232.708551 88.168228 
L 226.563515 88.168228 
z
" clip-path="url(#p27c302c89f)" style="fill: #ff0000; stroke: #000000; stroke-linejoin: miter"/>
   </g>
   <g id="patch_22">
    <path d="M 232.708551 151.370079 
L 238.853587 151.370079 
L 238.853587 93.615666 
L 232.708551 93.615666 
z
" clip-path="url(#p27c302c89f)" style="fill: #ff0000; stroke: #000000; stroke-linejoin: miter"/>
   </g>
   <g id="patch_23">
    <path d="M 238.853587 151.370079 
L 244.998623 151.370079 
L 244.998623 92.439924 
L 238.853587 92.439924 
z
" clip-path="url(#p27c302c89f)" style="fill: #ff0000; stroke: #000000; stroke-linejoin: miter"/>
   </g>
   <g id="patch_24">
    <path d="M 251.143659 151.370079 
L 257.288696 151.370079 
L 257.288696 80.821821 
L 251.143659 80.821821 
z
" clip-path="url(#p27c302c89f)" style="fill: #bcbd22; stroke: #000000; stroke-linejoin: miter"/>
   </g>
   <g id="patch_25">
    <path d="M 257.288696 151.370079 
L 263.433732 151.370079 
L 263.433732 92.263142 
L 257.288696 92.263142 
z
" clip-path="url(#p27c302c89f)" style="fill: #bcbd22; stroke: #000000; stroke-linejoin: miter"/>
   </g>
   <g id="patch_26">
    <path d="M 263.433732 151.370079 
L 269.578768 151.370079 
L 269.578768 92.872362 
L 263.433732 92.872362 
z
" clip-path="url(#p27c302c89f)" style="fill: #bcbd22; stroke: #000000; stroke-linejoin: miter"/>
   </g>
   <g id="patch_27">
    <path d="M 275.723804 151.370079 
L 281.86884 151.370079 
L 281.86884 34.391115 
L 275.723804 34.391115 
z
" clip-path="url(#p27c302c89f)" style="fill: #808080; stroke: #000000; stroke-linejoin: miter"/>
   </g>
   <g id="patch_28">
    <path d="M 281.86884 151.370079 
L 288.013876 151.370079 
L 288.013876 61.373835 
L 281.86884 61.373835 
z
" clip-path="url(#p27c302c89f)" style="fill: #808080; stroke: #000000; stroke-linejoin: miter"/>
   </g>
   <g id="patch_29">
    <path d="M 288.013876 151.370079 
L 294.158912 151.370079 
L 294.158912 54.914082 
L 288.013876 54.914082 
z
" clip-path="url(#p27c302c89f)" style="fill: #808080; stroke: #000000; stroke-linejoin: miter"/>
   </g>
   <g id="matplotlib.axis_1">
    <g id="xtick_1">
     <g id="line2d_1">
      <defs>
       <path id="m447965f2f8" d="M 0 0 
L 0 2.5 
" style="stroke: #000000; stroke-width: 1.25"/>
      </defs>
      <g>
       <use xlink:href="#m447965f2f8" x="63.720059" y="151.370079" style="stroke: #000000; stroke-width: 1.25"/>
      </g>
     </g>
     <g id="text_1">
      <!-- t f n -->
      <g transform="translate(57.050684 163.096329)scale(0.08 -0.08)">
       <defs>
        <path id="ArialMT-74" d="M 1650 503 
L 1731 6 
Q 1494 -44 1306 -44 
Q 1000 -44 831 53 
Q 663 150 594 308 
Q 525 466 525 972 
L 525 2881 
L 113 2881 
L 113 3319 
L 525 3319 
L 525 4141 
L 1084 4478 
L 1084 3319 
L 1650 3319 
L 1650 2881 
L 1084 2881 
L 1084 941 
Q 1084 700 1114 631 
Q 1144 563 1211 522 
Q 1278 481 1403 481 
Q 1497 481 1650 503 
z
" transform="scale(0.015625)"/>
        <path id="ArialMT-20" transform="scale(0.015625)"/>
        <path id="ArialMT-66" d="M 556 0 
L 556 2881 
L 59 2881 
L 59 3319 
L 556 3319 
L 556 3672 
Q 556 4006 616 4169 
Q 697 4388 901 4523 
Q 1106 4659 1475 4659 
Q 1713 4659 2000 4603 
L 1916 4113 
Q 1741 4144 1584 4144 
Q 1328 4144 1222 4034 
Q 1116 3925 1116 3625 
L 1116 3319 
L 1763 3319 
L 1763 2881 
L 1116 2881 
L 1116 0 
L 556 0 
z
" transform="scale(0.015625)"/>
        <path id="ArialMT-6e" d="M 422 0 
L 422 3319 
L 928 3319 
L 928 2847 
Q 1294 3394 1984 3394 
Q 2284 3394 2536 3286 
Q 2788 3178 2913 3003 
Q 3038 2828 3088 2588 
Q 3119 2431 3119 2041 
L 3119 0 
L 2556 0 
L 2556 2019 
Q 2556 2363 2490 2533 
Q 2425 2703 2258 2804 
Q 2091 2906 1866 2906 
Q 1506 2906 1245 2678 
Q 984 2450 984 1813 
L 984 0 
L 422 0 
z
" transform="scale(0.015625)"/>
       </defs>
       <use xlink:href="#ArialMT-74"/>
       <use xlink:href="#ArialMT-20" x="27.783203"/>
       <use xlink:href="#ArialMT-66" x="55.566406"/>
       <use xlink:href="#ArialMT-20" x="83.349609"/>
       <use xlink:href="#ArialMT-6e" x="111.132812"/>
      </g>
      <!-- val -->
      <g transform="translate(58.606934 171.557829)scale(0.08 -0.08)">
       <defs>
        <path id="ArialMT-76" d="M 1344 0 
L 81 3319 
L 675 3319 
L 1388 1331 
Q 1503 1009 1600 663 
Q 1675 925 1809 1294 
L 2547 3319 
L 3125 3319 
L 1869 0 
L 1344 0 
z
" transform="scale(0.015625)"/>
        <path id="ArialMT-61" d="M 2588 409 
Q 2275 144 1986 34 
Q 1697 -75 1366 -75 
Q 819 -75 525 192 
Q 231 459 231 875 
Q 231 1119 342 1320 
Q 453 1522 633 1644 
Q 813 1766 1038 1828 
Q 1203 1872 1538 1913 
Q 2219 1994 2541 2106 
Q 2544 2222 2544 2253 
Q 2544 2597 2384 2738 
Q 2169 2928 1744 2928 
Q 1347 2928 1158 2789 
Q 969 2650 878 2297 
L 328 2372 
Q 403 2725 575 2942 
Q 747 3159 1072 3276 
Q 1397 3394 1825 3394 
Q 2250 3394 2515 3294 
Q 2781 3194 2906 3042 
Q 3031 2891 3081 2659 
Q 3109 2516 3109 2141 
L 3109 1391 
Q 3109 606 3145 398 
Q 3181 191 3288 0 
L 2700 0 
Q 2613 175 2588 409 
z
M 2541 1666 
Q 2234 1541 1622 1453 
Q 1275 1403 1131 1340 
Q 988 1278 909 1158 
Q 831 1038 831 891 
Q 831 666 1001 516 
Q 1172 366 1500 366 
Q 1825 366 2078 508 
Q 2331 650 2450 897 
Q 2541 1088 2541 1459 
L 2541 1666 
z
" transform="scale(0.015625)"/>
        <path id="ArialMT-6c" d="M 409 0 
L 409 4581 
L 972 4581 
L 972 0 
L 409 0 
z
" transform="scale(0.015625)"/>
       </defs>
       <use xlink:href="#ArialMT-76"/>
       <use xlink:href="#ArialMT-61" x="50"/>
       <use xlink:href="#ArialMT-6c" x="105.615234"/>
      </g>
     </g>
    </g>
    <g id="xtick_2">
     <g id="line2d_2">
      <g>
       <use xlink:href="#m447965f2f8" x="88.300204" y="151.370079" style="stroke: #000000; stroke-width: 1.25"/>
      </g>
     </g>
     <g id="text_2">
      <!-- t f n -->
      <g transform="translate(81.630829 163.096329)scale(0.08 -0.08)">
       <use xlink:href="#ArialMT-74"/>
       <use xlink:href="#ArialMT-20" x="27.783203"/>
       <use xlink:href="#ArialMT-66" x="55.566406"/>
       <use xlink:href="#ArialMT-20" x="83.349609"/>
       <use xlink:href="#ArialMT-6e" x="111.132812"/>
      </g>
      <!-- test -->
      <g transform="translate(81.853329 171.557829)scale(0.08 -0.08)">
       <defs>
        <path id="ArialMT-65" d="M 2694 1069 
L 3275 997 
Q 3138 488 2766 206 
Q 2394 -75 1816 -75 
Q 1088 -75 661 373 
Q 234 822 234 1631 
Q 234 2469 665 2931 
Q 1097 3394 1784 3394 
Q 2450 3394 2872 2941 
Q 3294 2488 3294 1666 
Q 3294 1616 3291 1516 
L 816 1516 
Q 847 969 1125 678 
Q 1403 388 1819 388 
Q 2128 388 2347 550 
Q 2566 713 2694 1069 
z
M 847 1978 
L 2700 1978 
Q 2663 2397 2488 2606 
Q 2219 2931 1791 2931 
Q 1403 2931 1139 2672 
Q 875 2413 847 1978 
z
" transform="scale(0.015625)"/>
        <path id="ArialMT-73" d="M 197 991 
L 753 1078 
Q 800 744 1014 566 
Q 1228 388 1613 388 
Q 2000 388 2187 545 
Q 2375 703 2375 916 
Q 2375 1106 2209 1216 
Q 2094 1291 1634 1406 
Q 1016 1563 777 1677 
Q 538 1791 414 1992 
Q 291 2194 291 2438 
Q 291 2659 392 2848 
Q 494 3038 669 3163 
Q 800 3259 1026 3326 
Q 1253 3394 1513 3394 
Q 1903 3394 2198 3281 
Q 2494 3169 2634 2976 
Q 2775 2784 2828 2463 
L 2278 2388 
Q 2241 2644 2061 2787 
Q 1881 2931 1553 2931 
Q 1166 2931 1000 2803 
Q 834 2675 834 2503 
Q 834 2394 903 2306 
Q 972 2216 1119 2156 
Q 1203 2125 1616 2013 
Q 2213 1853 2448 1751 
Q 2684 1650 2818 1456 
Q 2953 1263 2953 975 
Q 2953 694 2789 445 
Q 2625 197 2315 61 
Q 2006 -75 1616 -75 
Q 969 -75 630 194 
Q 291 463 197 991 
z
" transform="scale(0.015625)"/>
       </defs>
       <use xlink:href="#ArialMT-74"/>
       <use xlink:href="#ArialMT-65" x="27.783203"/>
       <use xlink:href="#ArialMT-73" x="83.398438"/>
       <use xlink:href="#ArialMT-74" x="133.398438"/>
      </g>
      <!-- model B -->
      <g transform="translate(73.627079 180.019329)scale(0.08 -0.08)">
       <defs>
        <path id="ArialMT-6d" d="M 422 0 
L 422 3319 
L 925 3319 
L 925 2853 
Q 1081 3097 1340 3245 
Q 1600 3394 1931 3394 
Q 2300 3394 2536 3241 
Q 2772 3088 2869 2813 
Q 3263 3394 3894 3394 
Q 4388 3394 4653 3120 
Q 4919 2847 4919 2278 
L 4919 0 
L 4359 0 
L 4359 2091 
Q 4359 2428 4304 2576 
Q 4250 2725 4106 2815 
Q 3963 2906 3769 2906 
Q 3419 2906 3187 2673 
Q 2956 2441 2956 1928 
L 2956 0 
L 2394 0 
L 2394 2156 
Q 2394 2531 2256 2718 
Q 2119 2906 1806 2906 
Q 1569 2906 1367 2781 
Q 1166 2656 1075 2415 
Q 984 2175 984 1722 
L 984 0 
L 422 0 
z
" transform="scale(0.015625)"/>
        <path id="ArialMT-6f" d="M 213 1659 
Q 213 2581 725 3025 
Q 1153 3394 1769 3394 
Q 2453 3394 2887 2945 
Q 3322 2497 3322 1706 
Q 3322 1066 3130 698 
Q 2938 331 2570 128 
Q 2203 -75 1769 -75 
Q 1072 -75 642 372 
Q 213 819 213 1659 
z
M 791 1659 
Q 791 1022 1069 705 
Q 1347 388 1769 388 
Q 2188 388 2466 706 
Q 2744 1025 2744 1678 
Q 2744 2294 2464 2611 
Q 2184 2928 1769 2928 
Q 1347 2928 1069 2612 
Q 791 2297 791 1659 
z
" transform="scale(0.015625)"/>
        <path id="ArialMT-64" d="M 2575 0 
L 2575 419 
Q 2259 -75 1647 -75 
Q 1250 -75 917 144 
Q 584 363 401 755 
Q 219 1147 219 1656 
Q 219 2153 384 2558 
Q 550 2963 881 3178 
Q 1213 3394 1622 3394 
Q 1922 3394 2156 3267 
Q 2391 3141 2538 2938 
L 2538 4581 
L 3097 4581 
L 3097 0 
L 2575 0 
z
M 797 1656 
Q 797 1019 1065 703 
Q 1334 388 1700 388 
Q 2069 388 2326 689 
Q 2584 991 2584 1609 
Q 2584 2291 2321 2609 
Q 2059 2928 1675 2928 
Q 1300 2928 1048 2622 
Q 797 2316 797 1656 
z
" transform="scale(0.015625)"/>
        <path id="ArialMT-42" d="M 469 0 
L 469 4581 
L 2188 4581 
Q 2713 4581 3030 4442 
Q 3347 4303 3526 4014 
Q 3706 3725 3706 3409 
Q 3706 3116 3547 2856 
Q 3388 2597 3066 2438 
Q 3481 2316 3704 2022 
Q 3928 1728 3928 1328 
Q 3928 1006 3792 729 
Q 3656 453 3456 303 
Q 3256 153 2954 76 
Q 2653 0 2216 0 
L 469 0 
z
M 1075 2656 
L 2066 2656 
Q 2469 2656 2644 2709 
Q 2875 2778 2992 2937 
Q 3109 3097 3109 3338 
Q 3109 3566 3000 3739 
Q 2891 3913 2687 3977 
Q 2484 4041 1991 4041 
L 1075 4041 
L 1075 2656 
z
M 1075 541 
L 2216 541 
Q 2509 541 2628 563 
Q 2838 600 2978 687 
Q 3119 775 3209 942 
Q 3300 1109 3300 1328 
Q 3300 1584 3169 1773 
Q 3038 1963 2805 2039 
Q 2572 2116 2134 2116 
L 1075 2116 
L 1075 541 
z
" transform="scale(0.015625)"/>
       </defs>
       <use xlink:href="#ArialMT-6d"/>
       <use xlink:href="#ArialMT-6f" x="83.300781"/>
       <use xlink:href="#ArialMT-64" x="138.916016"/>
       <use xlink:href="#ArialMT-65" x="194.53125"/>
       <use xlink:href="#ArialMT-6c" x="250.146484"/>
       <use xlink:href="#ArialMT-20" x="272.363281"/>
       <use xlink:href="#ArialMT-42" x="300.146484"/>
      </g>
     </g>
    </g>
    <g id="xtick_3">
     <g id="line2d_3">
      <g>
       <use xlink:href="#m447965f2f8" x="112.880348" y="151.370079" style="stroke: #000000; stroke-width: 1.25"/>
      </g>
     </g>
     <g id="text_3">
      <!-- t f n -->
      <g transform="translate(106.210973 163.096329)scale(0.08 -0.08)">
       <use xlink:href="#ArialMT-74"/>
       <use xlink:href="#ArialMT-20" x="27.783203"/>
       <use xlink:href="#ArialMT-66" x="55.566406"/>
       <use xlink:href="#ArialMT-20" x="83.349609"/>
       <use xlink:href="#ArialMT-6e" x="111.132812"/>
      </g>
      <!-- ood -->
      <g transform="translate(106.207223 171.557829)scale(0.08 -0.08)">
       <use xlink:href="#ArialMT-6f"/>
       <use xlink:href="#ArialMT-6f" x="55.615234"/>
       <use xlink:href="#ArialMT-64" x="111.230469"/>
      </g>
     </g>
    </g>
    <g id="xtick_4">
     <g id="line2d_4">
      <g>
       <use xlink:href="#m447965f2f8" x="149.750564" y="151.370079" style="stroke: #000000; stroke-width: 1.25"/>
      </g>
     </g>
     <g id="text_4">
      <!-- t f n -->
      <g transform="translate(143.081189 163.096329)scale(0.08 -0.08)">
       <use xlink:href="#ArialMT-74"/>
       <use xlink:href="#ArialMT-20" x="27.783203"/>
       <use xlink:href="#ArialMT-66" x="55.566406"/>
       <use xlink:href="#ArialMT-20" x="83.349609"/>
       <use xlink:href="#ArialMT-6e" x="111.132812"/>
      </g>
      <!-- val -->
      <g transform="translate(144.637439 171.557829)scale(0.08 -0.08)">
       <use xlink:href="#ArialMT-76"/>
       <use xlink:href="#ArialMT-61" x="50"/>
       <use xlink:href="#ArialMT-6c" x="105.615234"/>
      </g>
     </g>
    </g>
    <g id="xtick_5">
     <g id="line2d_5">
      <g>
       <use xlink:href="#m447965f2f8" x="174.330709" y="151.370079" style="stroke: #000000; stroke-width: 1.25"/>
      </g>
     </g>
     <g id="text_5">
      <!-- t f n -->
      <g transform="translate(167.661334 163.096329)scale(0.08 -0.08)">
       <use xlink:href="#ArialMT-74"/>
       <use xlink:href="#ArialMT-20" x="27.783203"/>
       <use xlink:href="#ArialMT-66" x="55.566406"/>
       <use xlink:href="#ArialMT-20" x="83.349609"/>
       <use xlink:href="#ArialMT-6e" x="111.132812"/>
      </g>
      <!-- test -->
      <g transform="translate(167.883834 171.557829)scale(0.08 -0.08)">
       <use xlink:href="#ArialMT-74"/>
       <use xlink:href="#ArialMT-65" x="27.783203"/>
       <use xlink:href="#ArialMT-73" x="83.398438"/>
       <use xlink:href="#ArialMT-74" x="133.398438"/>
      </g>
      <!-- model G -->
      <g transform="translate(159.214459 180.019329)scale(0.08 -0.08)">
       <defs>
        <path id="ArialMT-47" d="M 2638 1797 
L 2638 2334 
L 4578 2338 
L 4578 638 
Q 4131 281 3656 101 
Q 3181 -78 2681 -78 
Q 2006 -78 1454 211 
Q 903 500 622 1047 
Q 341 1594 341 2269 
Q 341 2938 620 3517 
Q 900 4097 1425 4378 
Q 1950 4659 2634 4659 
Q 3131 4659 3532 4498 
Q 3934 4338 4162 4050 
Q 4391 3763 4509 3300 
L 3963 3150 
Q 3859 3500 3706 3700 
Q 3553 3900 3268 4020 
Q 2984 4141 2638 4141 
Q 2222 4141 1919 4014 
Q 1616 3888 1430 3681 
Q 1244 3475 1141 3228 
Q 966 2803 966 2306 
Q 966 1694 1177 1281 
Q 1388 869 1791 669 
Q 2194 469 2647 469 
Q 3041 469 3416 620 
Q 3791 772 3984 944 
L 3984 1797 
L 2638 1797 
z
" transform="scale(0.015625)"/>
       </defs>
       <use xlink:href="#ArialMT-6d"/>
       <use xlink:href="#ArialMT-6f" x="83.300781"/>
       <use xlink:href="#ArialMT-64" x="138.916016"/>
       <use xlink:href="#ArialMT-65" x="194.53125"/>
       <use xlink:href="#ArialMT-6c" x="250.146484"/>
       <use xlink:href="#ArialMT-20" x="272.363281"/>
       <use xlink:href="#ArialMT-47" x="300.146484"/>
      </g>
     </g>
    </g>
    <g id="xtick_6">
     <g id="line2d_6">
      <g>
       <use xlink:href="#m447965f2f8" x="198.910853" y="151.370079" style="stroke: #000000; stroke-width: 1.25"/>
      </g>
     </g>
     <g id="text_6">
      <!-- t f n -->
      <g transform="translate(192.241478 163.096329)scale(0.08 -0.08)">
       <use xlink:href="#ArialMT-74"/>
       <use xlink:href="#ArialMT-20" x="27.783203"/>
       <use xlink:href="#ArialMT-66" x="55.566406"/>
       <use xlink:href="#ArialMT-20" x="83.349609"/>
       <use xlink:href="#ArialMT-6e" x="111.132812"/>
      </g>
      <!-- ood -->
      <g transform="translate(192.237728 171.557829)scale(0.08 -0.08)">
       <use xlink:href="#ArialMT-6f"/>
       <use xlink:href="#ArialMT-6f" x="55.615234"/>
       <use xlink:href="#ArialMT-64" x="111.230469"/>
      </g>
     </g>
    </g>
    <g id="xtick_7">
     <g id="line2d_7">
      <g>
       <use xlink:href="#m447965f2f8" x="235.781069" y="151.370079" style="stroke: #000000; stroke-width: 1.25"/>
      </g>
     </g>
     <g id="text_7">
      <!-- t f n -->
      <g transform="translate(229.111694 163.096329)scale(0.08 -0.08)">
       <use xlink:href="#ArialMT-74"/>
       <use xlink:href="#ArialMT-20" x="27.783203"/>
       <use xlink:href="#ArialMT-66" x="55.566406"/>
       <use xlink:href="#ArialMT-20" x="83.349609"/>
       <use xlink:href="#ArialMT-6e" x="111.132812"/>
      </g>
      <!-- val -->
      <g transform="translate(230.667944 171.557829)scale(0.08 -0.08)">
       <use xlink:href="#ArialMT-76"/>
       <use xlink:href="#ArialMT-61" x="50"/>
       <use xlink:href="#ArialMT-6c" x="105.615234"/>
      </g>
     </g>
    </g>
    <g id="xtick_8">
     <g id="line2d_8">
      <g>
       <use xlink:href="#m447965f2f8" x="260.361214" y="151.370079" style="stroke: #000000; stroke-width: 1.25"/>
      </g>
     </g>
     <g id="text_8">
      <!-- t f n -->
      <g transform="translate(253.691839 163.096329)scale(0.08 -0.08)">
       <use xlink:href="#ArialMT-74"/>
       <use xlink:href="#ArialMT-20" x="27.783203"/>
       <use xlink:href="#ArialMT-66" x="55.566406"/>
       <use xlink:href="#ArialMT-20" x="83.349609"/>
       <use xlink:href="#ArialMT-6e" x="111.132812"/>
      </g>
      <!-- test -->
      <g transform="translate(253.914339 171.557829)scale(0.08 -0.08)">
       <use xlink:href="#ArialMT-74"/>
       <use xlink:href="#ArialMT-65" x="27.783203"/>
       <use xlink:href="#ArialMT-73" x="83.398438"/>
       <use xlink:href="#ArialMT-74" x="133.398438"/>
      </g>
      <!-- model H -->
      <g transform="translate(245.467464 180.019329)scale(0.08 -0.08)">
       <defs>
        <path id="ArialMT-48" d="M 513 0 
L 513 4581 
L 1119 4581 
L 1119 2700 
L 3500 2700 
L 3500 4581 
L 4106 4581 
L 4106 0 
L 3500 0 
L 3500 2159 
L 1119 2159 
L 1119 0 
L 513 0 
z
" transform="scale(0.015625)"/>
       </defs>
       <use xlink:href="#ArialMT-6d"/>
       <use xlink:href="#ArialMT-6f" x="83.300781"/>
       <use xlink:href="#ArialMT-64" x="138.916016"/>
       <use xlink:href="#ArialMT-65" x="194.53125"/>
       <use xlink:href="#ArialMT-6c" x="250.146484"/>
       <use xlink:href="#ArialMT-20" x="272.363281"/>
       <use xlink:href="#ArialMT-48" x="300.146484"/>
      </g>
     </g>
    </g>
    <g id="xtick_9">
     <g id="line2d_9">
      <g>
       <use xlink:href="#m447965f2f8" x="284.941358" y="151.370079" style="stroke: #000000; stroke-width: 1.25"/>
      </g>
     </g>
     <g id="text_9">
      <!-- t f n -->
      <g transform="translate(278.271983 163.096329)scale(0.08 -0.08)">
       <use xlink:href="#ArialMT-74"/>
       <use xlink:href="#ArialMT-20" x="27.783203"/>
       <use xlink:href="#ArialMT-66" x="55.566406"/>
       <use xlink:href="#ArialMT-20" x="83.349609"/>
       <use xlink:href="#ArialMT-6e" x="111.132812"/>
      </g>
      <!-- ood -->
      <g transform="translate(278.268233 171.557829)scale(0.08 -0.08)">
       <use xlink:href="#ArialMT-6f"/>
       <use xlink:href="#ArialMT-6f" x="55.615234"/>
       <use xlink:href="#ArialMT-64" x="111.230469"/>
      </g>
     </g>
    </g>
   </g>
   <g id="matplotlib.axis_2">
    <g id="ytick_1">
     <g id="line2d_10">
      <defs>
       <path id="m6552b6ffb5" d="M 0 0 
L -2.5 0 
" style="stroke: #000000; stroke-width: 1.25"/>
      </defs>
      <g>
       <use xlink:href="#m6552b6ffb5" x="42.519685" y="151.370079" style="stroke: #000000; stroke-width: 1.25"/>
      </g>
     </g>
     <g id="text_10">
      <!-- 0.0 -->
      <g transform="translate(25.399685 154.233204)scale(0.08 -0.08)">
       <defs>
        <path id="ArialMT-30" d="M 266 2259 
Q 266 3072 433 3567 
Q 600 4063 929 4331 
Q 1259 4600 1759 4600 
Q 2128 4600 2406 4451 
Q 2684 4303 2865 4023 
Q 3047 3744 3150 3342 
Q 3253 2941 3253 2259 
Q 3253 1453 3087 958 
Q 2922 463 2592 192 
Q 2263 -78 1759 -78 
Q 1097 -78 719 397 
Q 266 969 266 2259 
z
M 844 2259 
Q 844 1131 1108 757 
Q 1372 384 1759 384 
Q 2147 384 2411 759 
Q 2675 1134 2675 2259 
Q 2675 3391 2411 3762 
Q 2147 4134 1753 4134 
Q 1366 4134 1134 3806 
Q 844 3388 844 2259 
z
" transform="scale(0.015625)"/>
        <path id="ArialMT-2e" d="M 581 0 
L 581 641 
L 1222 641 
L 1222 0 
L 581 0 
z
" transform="scale(0.015625)"/>
       </defs>
       <use xlink:href="#ArialMT-30"/>
       <use xlink:href="#ArialMT-2e" x="55.615234"/>
       <use xlink:href="#ArialMT-30" x="83.398438"/>
      </g>
     </g>
    </g>
    <g id="ytick_2">
     <g id="line2d_11">
      <g>
       <use xlink:href="#m6552b6ffb5" x="42.519685" y="134.023993" style="stroke: #000000; stroke-width: 1.25"/>
      </g>
     </g>
     <g id="text_11">
      <!-- 0.1 -->
      <g transform="translate(25.399685 136.887118)scale(0.08 -0.08)">
       <defs>
        <path id="ArialMT-31" d="M 2384 0 
L 1822 0 
L 1822 3584 
Q 1619 3391 1289 3197 
Q 959 3003 697 2906 
L 697 3450 
Q 1169 3672 1522 3987 
Q 1875 4303 2022 4600 
L 2384 4600 
L 2384 0 
z
" transform="scale(0.015625)"/>
       </defs>
       <use xlink:href="#ArialMT-30"/>
       <use xlink:href="#ArialMT-2e" x="55.615234"/>
       <use xlink:href="#ArialMT-31" x="83.398438"/>
      </g>
     </g>
    </g>
    <g id="ytick_3">
     <g id="line2d_12">
      <g>
       <use xlink:href="#m6552b6ffb5" x="42.519685" y="116.677907" style="stroke: #000000; stroke-width: 1.25"/>
      </g>
     </g>
     <g id="text_12">
      <!-- 0.2 -->
      <g transform="translate(25.399685 119.541032)scale(0.08 -0.08)">
       <defs>
        <path id="ArialMT-32" d="M 3222 541 
L 3222 0 
L 194 0 
Q 188 203 259 391 
Q 375 700 629 1000 
Q 884 1300 1366 1694 
Q 2113 2306 2375 2664 
Q 2638 3022 2638 3341 
Q 2638 3675 2398 3904 
Q 2159 4134 1775 4134 
Q 1369 4134 1125 3890 
Q 881 3647 878 3216 
L 300 3275 
Q 359 3922 746 4261 
Q 1134 4600 1788 4600 
Q 2447 4600 2831 4234 
Q 3216 3869 3216 3328 
Q 3216 3053 3103 2787 
Q 2991 2522 2730 2228 
Q 2469 1934 1863 1422 
Q 1356 997 1212 845 
Q 1069 694 975 541 
L 3222 541 
z
" transform="scale(0.015625)"/>
       </defs>
       <use xlink:href="#ArialMT-30"/>
       <use xlink:href="#ArialMT-2e" x="55.615234"/>
       <use xlink:href="#ArialMT-32" x="83.398438"/>
      </g>
     </g>
    </g>
    <g id="ytick_4">
     <g id="line2d_13">
      <g>
       <use xlink:href="#m6552b6ffb5" x="42.519685" y="99.331822" style="stroke: #000000; stroke-width: 1.25"/>
      </g>
     </g>
     <g id="text_13">
      <!-- 0.3 -->
      <g transform="translate(25.399685 102.194947)scale(0.08 -0.08)">
       <defs>
        <path id="ArialMT-33" d="M 269 1209 
L 831 1284 
Q 928 806 1161 595 
Q 1394 384 1728 384 
Q 2125 384 2398 659 
Q 2672 934 2672 1341 
Q 2672 1728 2419 1979 
Q 2166 2231 1775 2231 
Q 1616 2231 1378 2169 
L 1441 2663 
Q 1497 2656 1531 2656 
Q 1891 2656 2178 2843 
Q 2466 3031 2466 3422 
Q 2466 3731 2256 3934 
Q 2047 4138 1716 4138 
Q 1388 4138 1169 3931 
Q 950 3725 888 3313 
L 325 3413 
Q 428 3978 793 4289 
Q 1159 4600 1703 4600 
Q 2078 4600 2393 4439 
Q 2709 4278 2876 4000 
Q 3044 3722 3044 3409 
Q 3044 3113 2884 2869 
Q 2725 2625 2413 2481 
Q 2819 2388 3044 2092 
Q 3269 1797 3269 1353 
Q 3269 753 2831 336 
Q 2394 -81 1725 -81 
Q 1122 -81 723 278 
Q 325 638 269 1209 
z
" transform="scale(0.015625)"/>
       </defs>
       <use xlink:href="#ArialMT-30"/>
       <use xlink:href="#ArialMT-2e" x="55.615234"/>
       <use xlink:href="#ArialMT-33" x="83.398438"/>
      </g>
     </g>
    </g>
    <g id="ytick_5">
     <g id="line2d_14">
      <g>
       <use xlink:href="#m6552b6ffb5" x="42.519685" y="81.985736" style="stroke: #000000; stroke-width: 1.25"/>
      </g>
     </g>
     <g id="text_14">
      <!-- 0.4 -->
      <g transform="translate(25.399685 84.848861)scale(0.08 -0.08)">
       <defs>
        <path id="ArialMT-34" d="M 2069 0 
L 2069 1097 
L 81 1097 
L 81 1613 
L 2172 4581 
L 2631 4581 
L 2631 1613 
L 3250 1613 
L 3250 1097 
L 2631 1097 
L 2631 0 
L 2069 0 
z
M 2069 1613 
L 2069 3678 
L 634 1613 
L 2069 1613 
z
" transform="scale(0.015625)"/>
       </defs>
       <use xlink:href="#ArialMT-30"/>
       <use xlink:href="#ArialMT-2e" x="55.615234"/>
       <use xlink:href="#ArialMT-34" x="83.398438"/>
      </g>
     </g>
    </g>
    <g id="ytick_6">
     <g id="line2d_15">
      <g>
       <use xlink:href="#m6552b6ffb5" x="42.519685" y="64.639651" style="stroke: #000000; stroke-width: 1.25"/>
      </g>
     </g>
     <g id="text_15">
      <!-- 0.5 -->
      <g transform="translate(25.399685 67.502776)scale(0.08 -0.08)">
       <defs>
        <path id="ArialMT-35" d="M 266 1200 
L 856 1250 
Q 922 819 1161 601 
Q 1400 384 1738 384 
Q 2144 384 2425 690 
Q 2706 997 2706 1503 
Q 2706 1984 2436 2262 
Q 2166 2541 1728 2541 
Q 1456 2541 1237 2417 
Q 1019 2294 894 2097 
L 366 2166 
L 809 4519 
L 3088 4519 
L 3088 3981 
L 1259 3981 
L 1013 2750 
Q 1425 3038 1878 3038 
Q 2478 3038 2890 2622 
Q 3303 2206 3303 1553 
Q 3303 931 2941 478 
Q 2500 -78 1738 -78 
Q 1113 -78 717 272 
Q 322 622 266 1200 
z
" transform="scale(0.015625)"/>
       </defs>
       <use xlink:href="#ArialMT-30"/>
       <use xlink:href="#ArialMT-2e" x="55.615234"/>
       <use xlink:href="#ArialMT-35" x="83.398438"/>
      </g>
     </g>
    </g>
    <g id="ytick_7">
     <g id="line2d_16">
      <g>
       <use xlink:href="#m6552b6ffb5" x="42.519685" y="47.293565" style="stroke: #000000; stroke-width: 1.25"/>
      </g>
     </g>
     <g id="text_16">
      <!-- 0.6 -->
      <g transform="translate(25.399685 50.15669)scale(0.08 -0.08)">
       <defs>
        <path id="ArialMT-36" d="M 3184 3459 
L 2625 3416 
Q 2550 3747 2413 3897 
Q 2184 4138 1850 4138 
Q 1581 4138 1378 3988 
Q 1113 3794 959 3422 
Q 806 3050 800 2363 
Q 1003 2672 1297 2822 
Q 1591 2972 1913 2972 
Q 2475 2972 2870 2558 
Q 3266 2144 3266 1488 
Q 3266 1056 3080 686 
Q 2894 316 2569 119 
Q 2244 -78 1831 -78 
Q 1128 -78 684 439 
Q 241 956 241 2144 
Q 241 3472 731 4075 
Q 1159 4600 1884 4600 
Q 2425 4600 2770 4297 
Q 3116 3994 3184 3459 
z
M 888 1484 
Q 888 1194 1011 928 
Q 1134 663 1356 523 
Q 1578 384 1822 384 
Q 2178 384 2434 671 
Q 2691 959 2691 1453 
Q 2691 1928 2437 2201 
Q 2184 2475 1800 2475 
Q 1419 2475 1153 2201 
Q 888 1928 888 1484 
z
" transform="scale(0.015625)"/>
       </defs>
       <use xlink:href="#ArialMT-30"/>
       <use xlink:href="#ArialMT-2e" x="55.615234"/>
       <use xlink:href="#ArialMT-36" x="83.398438"/>
      </g>
     </g>
    </g>
    <g id="ytick_8">
     <g id="line2d_17">
      <g>
       <use xlink:href="#m6552b6ffb5" x="42.519685" y="29.947479" style="stroke: #000000; stroke-width: 1.25"/>
      </g>
     </g>
     <g id="text_17">
      <!-- 0.7 -->
      <g transform="translate(25.399685 32.810604)scale(0.08 -0.08)">
       <defs>
        <path id="ArialMT-37" d="M 303 3981 
L 303 4522 
L 3269 4522 
L 3269 4084 
Q 2831 3619 2401 2847 
Q 1972 2075 1738 1259 
Q 1569 684 1522 0 
L 944 0 
Q 953 541 1156 1306 
Q 1359 2072 1739 2783 
Q 2119 3494 2547 3981 
L 303 3981 
z
" transform="scale(0.015625)"/>
       </defs>
       <use xlink:href="#ArialMT-30"/>
       <use xlink:href="#ArialMT-2e" x="55.615234"/>
       <use xlink:href="#ArialMT-37" x="83.398438"/>
      </g>
     </g>
    </g>
    <g id="text_18">
     <!-- mean squared error -->
     <g transform="translate(14.610935 125.406092)rotate(-90)scale(0.09 -0.09)">
      <defs>
       <path id="ArialMT-71" d="M 2538 -1272 
L 2538 353 
Q 2406 169 2170 47 
Q 1934 -75 1669 -75 
Q 1078 -75 651 397 
Q 225 869 225 1691 
Q 225 2191 398 2587 
Q 572 2984 901 3189 
Q 1231 3394 1625 3394 
Q 2241 3394 2594 2875 
L 2594 3319 
L 3100 3319 
L 3100 -1272 
L 2538 -1272 
z
M 803 1669 
Q 803 1028 1072 708 
Q 1341 388 1716 388 
Q 2075 388 2334 692 
Q 2594 997 2594 1619 
Q 2594 2281 2320 2615 
Q 2047 2950 1678 2950 
Q 1313 2950 1058 2639 
Q 803 2328 803 1669 
z
" transform="scale(0.015625)"/>
       <path id="ArialMT-75" d="M 2597 0 
L 2597 488 
Q 2209 -75 1544 -75 
Q 1250 -75 995 37 
Q 741 150 617 320 
Q 494 491 444 738 
Q 409 903 409 1263 
L 409 3319 
L 972 3319 
L 972 1478 
Q 972 1038 1006 884 
Q 1059 663 1231 536 
Q 1403 409 1656 409 
Q 1909 409 2131 539 
Q 2353 669 2445 892 
Q 2538 1116 2538 1541 
L 2538 3319 
L 3100 3319 
L 3100 0 
L 2597 0 
z
" transform="scale(0.015625)"/>
       <path id="ArialMT-72" d="M 416 0 
L 416 3319 
L 922 3319 
L 922 2816 
Q 1116 3169 1280 3281 
Q 1444 3394 1641 3394 
Q 1925 3394 2219 3213 
L 2025 2691 
Q 1819 2813 1613 2813 
Q 1428 2813 1281 2702 
Q 1134 2591 1072 2394 
Q 978 2094 978 1738 
L 978 0 
L 416 0 
z
" transform="scale(0.015625)"/>
      </defs>
      <use xlink:href="#ArialMT-6d"/>
      <use xlink:href="#ArialMT-65" x="83.300781"/>
      <use xlink:href="#ArialMT-61" x="138.916016"/>
      <use xlink:href="#ArialMT-6e" x="194.53125"/>
      <use xlink:href="#ArialMT-20" x="250.146484"/>
      <use xlink:href="#ArialMT-73" x="277.929688"/>
      <use xlink:href="#ArialMT-71" x="327.929688"/>
      <use xlink:href="#ArialMT-75" x="383.544922"/>
      <use xlink:href="#ArialMT-61" x="439.160156"/>
      <use xlink:href="#ArialMT-72" x="494.775391"/>
      <use xlink:href="#ArialMT-65" x="528.076172"/>
      <use xlink:href="#ArialMT-64" x="583.691406"/>
      <use xlink:href="#ArialMT-20" x="639.306641"/>
      <use xlink:href="#ArialMT-65" x="667.089844"/>
      <use xlink:href="#ArialMT-72" x="722.705078"/>
      <use xlink:href="#ArialMT-72" x="756.005859"/>
      <use xlink:href="#ArialMT-6f" x="789.306641"/>
      <use xlink:href="#ArialMT-72" x="844.921875"/>
     </g>
    </g>
   </g>
   <g id="LineCollection_1">
    <path d="M 57.575023 87.421269 
L 57.575023 83.384786 
" clip-path="url(#p27c302c89f)" style="fill: none; stroke: #000000"/>
    <path d="M 63.720059 105.631276 
L 63.720059 102.626268 
" clip-path="url(#p27c302c89f)" style="fill: none; stroke: #000000"/>
    <path d="M 69.865096 109.922122 
L 69.865096 105.734579 
" clip-path="url(#p27c302c89f)" style="fill: none; stroke: #000000"/>
   </g>
   <g id="line2d_18">
    <defs>
     <path id="m0f12c2f5c1" d="M 1.5 0 
L -1.5 -0 
" style="stroke: #000000"/>
    </defs>
    <g clip-path="url(#p27c302c89f)">
     <use xlink:href="#m0f12c2f5c1" x="57.575023" y="87.421269" style="stroke: #000000"/>
     <use xlink:href="#m0f12c2f5c1" x="63.720059" y="105.631276" style="stroke: #000000"/>
     <use xlink:href="#m0f12c2f5c1" x="69.865096" y="109.922122" style="stroke: #000000"/>
    </g>
   </g>
   <g id="line2d_19">
    <g clip-path="url(#p27c302c89f)">
     <use xlink:href="#m0f12c2f5c1" x="57.575023" y="83.384786" style="stroke: #000000"/>
     <use xlink:href="#m0f12c2f5c1" x="63.720059" y="102.626268" style="stroke: #000000"/>
     <use xlink:href="#m0f12c2f5c1" x="69.865096" y="105.734579" style="stroke: #000000"/>
    </g>
   </g>
   <g id="LineCollection_2">
    <path d="M 82.155168 88.374074 
L 82.155168 79.280524 
" clip-path="url(#p27c302c89f)" style="fill: none; stroke: #000000"/>
    <path d="M 88.300204 98.459354 
L 88.300204 94.391811 
" clip-path="url(#p27c302c89f)" style="fill: none; stroke: #000000"/>
    <path d="M 94.44524 111.365714 
L 94.44524 107.156145 
" clip-path="url(#p27c302c89f)" style="fill: none; stroke: #000000"/>
   </g>
   <g id="line2d_20">
    <g clip-path="url(#p27c302c89f)">
     <use xlink:href="#m0f12c2f5c1" x="82.155168" y="88.374074" style="stroke: #000000"/>
     <use xlink:href="#m0f12c2f5c1" x="88.300204" y="98.459354" style="stroke: #000000"/>
     <use xlink:href="#m0f12c2f5c1" x="94.44524" y="111.365714" style="stroke: #000000"/>
    </g>
   </g>
   <g id="line2d_21">
    <g clip-path="url(#p27c302c89f)">
     <use xlink:href="#m0f12c2f5c1" x="82.155168" y="79.280524" style="stroke: #000000"/>
     <use xlink:href="#m0f12c2f5c1" x="88.300204" y="94.391811" style="stroke: #000000"/>
     <use xlink:href="#m0f12c2f5c1" x="94.44524" y="107.156145" style="stroke: #000000"/>
    </g>
   </g>
   <g id="LineCollection_3">
    <path d="M 106.735312 64.031667 
L 106.735312 50.996399 
" clip-path="url(#p27c302c89f)" style="fill: none; stroke: #000000"/>
    <path d="M 112.880348 75.839511 
L 112.880348 72.834503 
" clip-path="url(#p27c302c89f)" style="fill: none; stroke: #000000"/>
    <path d="M 119.025384 91.642238 
L 119.025384 83.748787 
" clip-path="url(#p27c302c89f)" style="fill: none; stroke: #000000"/>
   </g>
   <g id="line2d_22">
    <g clip-path="url(#p27c302c89f)">
     <use xlink:href="#m0f12c2f5c1" x="106.735312" y="64.031667" style="stroke: #000000"/>
     <use xlink:href="#m0f12c2f5c1" x="112.880348" y="75.839511" style="stroke: #000000"/>
     <use xlink:href="#m0f12c2f5c1" x="119.025384" y="91.642238" style="stroke: #000000"/>
    </g>
   </g>
   <g id="line2d_23">
    <g clip-path="url(#p27c302c89f)">
     <use xlink:href="#m0f12c2f5c1" x="106.735312" y="50.996399" style="stroke: #000000"/>
     <use xlink:href="#m0f12c2f5c1" x="112.880348" y="72.834503" style="stroke: #000000"/>
     <use xlink:href="#m0f12c2f5c1" x="119.025384" y="83.748787" style="stroke: #000000"/>
    </g>
   </g>
   <g id="LineCollection_4">
    <path d="M 143.605528 91.480354 
L 143.605528 86.577833 
" clip-path="url(#p27c302c89f)" style="fill: none; stroke: #000000"/>
    <path d="M 149.750564 95.820324 
L 149.750564 92.720955 
" clip-path="url(#p27c302c89f)" style="fill: none; stroke: #000000"/>
    <path d="M 155.8956 97.606851 
L 155.8956 93.063706 
" clip-path="url(#p27c302c89f)" style="fill: none; stroke: #000000"/>
   </g>
   <g id="line2d_24">
    <g clip-path="url(#p27c302c89f)">
     <use xlink:href="#m0f12c2f5c1" x="143.605528" y="91.480354" style="stroke: #000000"/>
     <use xlink:href="#m0f12c2f5c1" x="149.750564" y="95.820324" style="stroke: #000000"/>
     <use xlink:href="#m0f12c2f5c1" x="155.8956" y="97.606851" style="stroke: #000000"/>
    </g>
   </g>
   <g id="line2d_25">
    <g clip-path="url(#p27c302c89f)">
     <use xlink:href="#m0f12c2f5c1" x="143.605528" y="86.577833" style="stroke: #000000"/>
     <use xlink:href="#m0f12c2f5c1" x="149.750564" y="92.720955" style="stroke: #000000"/>
     <use xlink:href="#m0f12c2f5c1" x="155.8956" y="93.063706" style="stroke: #000000"/>
    </g>
   </g>
   <g id="LineCollection_5">
    <path d="M 168.185673 89.216001 
L 168.185673 81.476153 
" clip-path="url(#p27c302c89f)" style="fill: none; stroke: #000000"/>
    <path d="M 174.330709 97.507466 
L 174.330709 92.211475 
" clip-path="url(#p27c302c89f)" style="fill: none; stroke: #000000"/>
    <path d="M 180.475745 99.569822 
L 180.475745 92.890251 
" clip-path="url(#p27c302c89f)" style="fill: none; stroke: #000000"/>
   </g>
   <g id="line2d_26">
    <g clip-path="url(#p27c302c89f)">
     <use xlink:href="#m0f12c2f5c1" x="168.185673" y="89.216001" style="stroke: #000000"/>
     <use xlink:href="#m0f12c2f5c1" x="174.330709" y="97.507466" style="stroke: #000000"/>
     <use xlink:href="#m0f12c2f5c1" x="180.475745" y="99.569822" style="stroke: #000000"/>
    </g>
   </g>
   <g id="line2d_27">
    <g clip-path="url(#p27c302c89f)">
     <use xlink:href="#m0f12c2f5c1" x="168.185673" y="81.476153" style="stroke: #000000"/>
     <use xlink:href="#m0f12c2f5c1" x="174.330709" y="92.211475" style="stroke: #000000"/>
     <use xlink:href="#m0f12c2f5c1" x="180.475745" y="92.890251" style="stroke: #000000"/>
    </g>
   </g>
   <g id="LineCollection_6">
    <path d="M 192.765817 71.000002 
L 192.765817 59.424061 
" clip-path="url(#p27c302c89f)" style="fill: none; stroke: #000000"/>
    <path d="M 198.910853 82.569897 
L 198.910853 79.470527 
" clip-path="url(#p27c302c89f)" style="fill: none; stroke: #000000"/>
    <path d="M 205.055889 84.69453 
L 205.055889 79.094531 
" clip-path="url(#p27c302c89f)" style="fill: none; stroke: #000000"/>
   </g>
   <g id="line2d_28">
    <g clip-path="url(#p27c302c89f)">
     <use xlink:href="#m0f12c2f5c1" x="192.765817" y="71.000002" style="stroke: #000000"/>
     <use xlink:href="#m0f12c2f5c1" x="198.910853" y="82.569897" style="stroke: #000000"/>
     <use xlink:href="#m0f12c2f5c1" x="205.055889" y="84.69453" style="stroke: #000000"/>
    </g>
   </g>
   <g id="line2d_29">
    <g clip-path="url(#p27c302c89f)">
     <use xlink:href="#m0f12c2f5c1" x="192.765817" y="59.424061" style="stroke: #000000"/>
     <use xlink:href="#m0f12c2f5c1" x="198.910853" y="79.470527" style="stroke: #000000"/>
     <use xlink:href="#m0f12c2f5c1" x="205.055889" y="79.094531" style="stroke: #000000"/>
    </g>
   </g>
   <g id="LineCollection_7">
    <path d="M 229.636033 91.479143 
L 229.636033 84.857313 
" clip-path="url(#p27c302c89f)" style="fill: none; stroke: #000000"/>
    <path d="M 235.781069 94.722565 
L 235.781069 92.508766 
" clip-path="url(#p27c302c89f)" style="fill: none; stroke: #000000"/>
    <path d="M 241.926105 94.809328 
L 241.926105 90.07052 
" clip-path="url(#p27c302c89f)" style="fill: none; stroke: #000000"/>
   </g>
   <g id="line2d_30">
    <g clip-path="url(#p27c302c89f)">
     <use xlink:href="#m0f12c2f5c1" x="229.636033" y="91.479143" style="stroke: #000000"/>
     <use xlink:href="#m0f12c2f5c1" x="235.781069" y="94.722565" style="stroke: #000000"/>
     <use xlink:href="#m0f12c2f5c1" x="241.926105" y="94.809328" style="stroke: #000000"/>
    </g>
   </g>
   <g id="line2d_31">
    <g clip-path="url(#p27c302c89f)">
     <use xlink:href="#m0f12c2f5c1" x="229.636033" y="84.857313" style="stroke: #000000"/>
     <use xlink:href="#m0f12c2f5c1" x="235.781069" y="92.508766" style="stroke: #000000"/>
     <use xlink:href="#m0f12c2f5c1" x="241.926105" y="90.07052" style="stroke: #000000"/>
    </g>
   </g>
   <g id="LineCollection_8">
    <path d="M 254.216178 84.952514 
L 254.216178 76.691128 
" clip-path="url(#p27c302c89f)" style="fill: none; stroke: #000000"/>
    <path d="M 260.361214 95.901757 
L 260.361214 88.624527 
" clip-path="url(#p27c302c89f)" style="fill: none; stroke: #000000"/>
    <path d="M 266.50625 96.552264 
L 266.50625 89.192459 
" clip-path="url(#p27c302c89f)" style="fill: none; stroke: #000000"/>
   </g>
   <g id="line2d_32">
    <g clip-path="url(#p27c302c89f)">
     <use xlink:href="#m0f12c2f5c1" x="254.216178" y="84.952514" style="stroke: #000000"/>
     <use xlink:href="#m0f12c2f5c1" x="260.361214" y="95.901757" style="stroke: #000000"/>
     <use xlink:href="#m0f12c2f5c1" x="266.50625" y="96.552264" style="stroke: #000000"/>
    </g>
   </g>
   <g id="line2d_33">
    <g clip-path="url(#p27c302c89f)">
     <use xlink:href="#m0f12c2f5c1" x="254.216178" y="76.691128" style="stroke: #000000"/>
     <use xlink:href="#m0f12c2f5c1" x="260.361214" y="88.624527" style="stroke: #000000"/>
     <use xlink:href="#m0f12c2f5c1" x="266.50625" y="89.192459" style="stroke: #000000"/>
    </g>
   </g>
   <g id="LineCollection_9">
    <path d="M 278.796322 42.13656 
L 278.796322 26.645669 
" clip-path="url(#p27c302c89f)" style="fill: none; stroke: #000000"/>
    <path d="M 284.941358 62.480735 
L 284.941358 60.266936 
" clip-path="url(#p27c302c89f)" style="fill: none; stroke: #000000"/>
    <path d="M 291.086394 56.942944 
L 291.086394 52.88522 
" clip-path="url(#p27c302c89f)" style="fill: none; stroke: #000000"/>
   </g>
   <g id="line2d_34">
    <g clip-path="url(#p27c302c89f)">
     <use xlink:href="#m0f12c2f5c1" x="278.796322" y="42.13656" style="stroke: #000000"/>
     <use xlink:href="#m0f12c2f5c1" x="284.941358" y="62.480735" style="stroke: #000000"/>
     <use xlink:href="#m0f12c2f5c1" x="291.086394" y="56.942944" style="stroke: #000000"/>
    </g>
   </g>
   <g id="line2d_35">
    <g clip-path="url(#p27c302c89f)">
     <use xlink:href="#m0f12c2f5c1" x="278.796322" y="26.645669" style="stroke: #000000"/>
     <use xlink:href="#m0f12c2f5c1" x="284.941358" y="60.266936" style="stroke: #000000"/>
     <use xlink:href="#m0f12c2f5c1" x="291.086394" y="52.88522" style="stroke: #000000"/>
    </g>
   </g>
   <g id="patch_30">
    <path d="M 42.519685 151.370079 
L 42.519685 20.409449 
" style="fill: none; stroke: #000000; stroke-linejoin: miter; stroke-linecap: square"/>
   </g>
   <g id="patch_31">
    <path d="M 306.141732 151.370079 
L 306.141732 20.409449 
" style="fill: none; stroke: #000000; stroke-linejoin: miter; stroke-linecap: square"/>
   </g>
   <g id="patch_32">
    <path d="M 42.519685 151.370079 
L 306.141732 151.370079 
" style="fill: none; stroke: #000000; stroke-linejoin: miter; stroke-linecap: square"/>
   </g>
   <g id="patch_33">
    <path d="M 42.519685 20.409449 
L 306.141732 20.409449 
" style="fill: none; stroke: #000000; stroke-linejoin: miter; stroke-linecap: square"/>
   </g>
  </g>
 </g>
 <defs>
  <clipPath id="p27c302c89f">
   <rect x="42.519685" y="20.409449" width="263.622047" height="130.96063"/>
  </clipPath>
 </defs>
</svg>
